<svg viewBox="0 0 109 28" fill="none" xmlns="http://www.w3.org/2000/svg">
    <path fill-rule="evenodd" clip-rule="evenodd"
          d="M31.191 17.955 25.486 7.803h-4.963l8.502 14.464L26.143 28h4.449l10.07-20.197h-4.819l-4.653 10.152ZM63.378 7.803h-5.05l-4.27 6.55-4.241-6.55h-5.194l6.752 9.925L44.335 28h5.05l4.558-6.925L58.473 28h5.193l-7.04-10.33 6.752-9.867Zm4.958 4.097h6.145V28h4.443V11.9h6.146V7.803H68.336V11.9ZM9.355 23.986H4.447V19.02h4.88c2.107 0 3.117.837 3.117 2.397 0 1.76-1.01 2.57-3.089 2.57Zm.433-8.661H4.447v-3.523H15.78V7.79H0v20.21h9.354c4.677 0 7.536-2.28 7.536-6.409 0-3.782-2.54-6.265-7.103-6.265ZM0 4.013h15.78V0H0v4.013Zm95.541 15.533 2.684-6.55 2.683 6.55h-5.367Zm4.79-11.887h-4.097l-8.656 20.34h4.53l1.847-4.529h8.54l1.846 4.53h4.645l-8.655-20.341Z"
          fill="#232837"></path>
</svg>
